<?xml version="1.0" standalone="no"?>
<!DOCTYPE svg PUBLIC "-//W3C//DTD SVG 20010904//EN"
 "http://www.w3.org/TR/2001/REC-SVG-20010904/DTD/svg10.dtd">
<svg version="1.0" xmlns="http://www.w3.org/2000/svg"
 width="500.000000pt" height="500.000000pt" viewBox="0 0 500.000000 500.000000"
 preserveAspectRatio="xMidYMid meet">
<metadata>
Created by potrace 1.14, written by Peter Selinger 2001-2017
</metadata>
<g transform="translate(0.000000,500.000000) scale(0.100000,-0.100000)"
fill="#000000" stroke="none">
<path d="M2315 4833 c-201 -19 -443 -72 -612 -133 -114 -41 -347 -155 -443
-217 -235 -150 -416 -311 -587 -523 -228 -282 -411 -678 -472 -1025 -6 -33
-13 -70 -15 -82 -25 -125 -32 -513 -12 -623 3 -14 10 -60 16 -103 18 -122 74
-332 124 -459 223 -577 647 -1032 1204 -1292 179 -83 457 -165 647 -191 206
-28 505 -27 693 3 264 43 482 114 710 232 615 319 1048 870 1207 1535 52 214
65 341 60 585 -5 323 -53 557 -172 852 -60 151 -231 450 -296 520 -6 8 -28 34
-46 58 -19 25 -55 66 -79 91 -24 26 -60 64 -80 85 -98 104 -259 234 -402 325
-364 234 -780 358 -1215 364 -104 1 -208 0 -230 -2z"/>
</g>
</svg>
